<svg width="32" height="32" viewBox="0 0 32 32" fill="none" xmlns="http://www.w3.org/2000/svg">
<path d="M31.5831 20.2688C30.8021 19.8069 29.8241 19.7322 28.9514 20.1193C28.9514 20.1193 28.948 20.1228 28.9344 20.1261C28.931 20.1295 28.9242 20.1295 28.9207 20.1329C28.9241 20.1329 28.9207 20.1329 28.9106 20.1363L28.9037 20.1397L28.9004 20.1431C28.8868 20.1464 28.8732 20.1532 28.8562 20.1601C28.5371 20.3026 27.2908 20.8562 23.053 22.7306V22.7238C22.1022 21.3757 20.4281 22.3706 18.1598 22.5676C14.6419 20.7645 11.3209 18.9987 7.67731 19.1107V26.3266H8.28175L15.8474 29.3149C17.0834 29.8038 18.4858 29.6782 19.62 28.9821L31.5898 21.5965C32.0822 21.2909 32.0856 20.5642 31.5831 20.2688ZM6.29056 18.2222H5.68331V17.7679C5.68331 17.4129 5.39556 17.1251 5.0405 17.1251H0.683248C0.328186 17.1251 0.0404358 17.4129 0.0404358 17.7679V28.0643C0.0404358 28.4194 0.328186 28.7071 0.683248 28.7071H5.0405C5.39556 28.7071 5.68331 28.4194 5.68331 28.0643V27.6101H6.29056C6.682 27.6101 6.99931 27.2927 6.99931 26.9012V18.931C6.99937 18.5396 6.682 18.2222 6.29056 18.2222ZM3.71694 27.7212C3.28006 27.7212 2.92219 27.3634 2.92219 26.9265C2.92219 26.4897 3.28006 26.1318 3.71694 26.1318C4.15375 26.1318 4.51162 26.4897 4.51162 26.9265C4.51162 27.3634 4.15375 27.7212 3.71694 27.7212Z" fill="#C1292E"/>
<path d="M12.0934 12.2144L13.4512 12.3705C13.6142 13.0766 13.8925 13.7555 14.2795 14.3666L13.4241 15.4393C13.2001 15.7244 13.2272 16.1249 13.4784 16.3761L14.4152 17.313C14.6664 17.5642 15.067 17.5914 15.3521 17.3673L16.4248 16.5119C17.0358 16.8989 17.7147 17.1773 18.4208 17.3401L18.5769 18.698C18.6833 19.6379 19.917 19.232 20.5933 19.3226C20.9531 19.3226 21.2519 19.0578 21.2926 18.698L21.4487 17.3401C22.1549 17.1773 22.8337 16.8988 23.4447 16.5118L24.5174 17.3673C24.8026 17.5913 25.2031 17.5642 25.4543 17.313L26.3912 16.3761C26.6424 16.1249 26.6696 15.7244 26.4456 15.4392L25.5901 14.3665C25.9771 13.7555 26.2554 13.0766 26.4184 12.3706L27.7762 12.2144C28.136 12.1737 28.4007 11.875 28.4007 11.5151V10.198C28.4007 9.83819 28.136 9.5395 27.7762 9.49869L26.4184 9.3425C26.2554 8.6365 25.9771 7.9575 25.5901 7.34656L26.4456 6.27388C26.6696 5.98875 26.6424 5.58819 26.3912 5.337L25.4543 4.40013C25.2031 4.14894 24.8026 4.12175 24.5174 4.34581L23.4447 5.20119C22.8337 4.81419 22.1549 4.53588 21.4487 4.373L21.2926 3.01513C21.2519 2.65525 20.9532 2.39056 20.5933 2.39056H19.2762C18.9164 2.39056 18.6177 2.65538 18.5769 3.01513L18.4208 4.373C17.7147 4.53588 17.0358 4.81419 16.4248 5.20119L15.3521 4.34581C15.067 4.12181 14.6664 4.149 14.4152 4.40019L13.4784 5.33706C13.2272 5.58825 13.2001 5.98875 13.4241 6.27394L14.2795 7.34656C13.8925 7.95763 13.6142 8.6365 13.4512 9.34263L12.0934 9.49881C11.7336 9.5395 11.4689 9.83831 11.4689 10.1981V11.5152C11.4689 11.875 11.7336 12.1737 12.0934 12.2144ZM17.7501 8.67869C18.9564 7.47238 20.9076 7.47238 22.1139 8.67869C23.3121 9.87688 23.3121 11.8361 22.1139 13.0344C20.9076 14.2407 18.9564 14.2407 17.7501 13.0344C16.5437 11.8362 16.5437 9.87688 17.7501 8.67869Z" fill="#C1292E"/>
</svg>
