<svg width="32" height="18" viewBox="0 0 32 18" fill="none" xmlns="http://www.w3.org/2000/svg">
<path d="M16.005 10.575C17.875 10.575 19.715 7.535 19.715 4.44C19.715 1.21 17.695 0.529999 16.005 0.529999C14.305 0.529999 12.295 1.21 12.295 4.44C12.295 7.535 14.13 10.575 16.005 10.575ZM22.225 12.88C21.445 12.64 20.53 12.25 19.52 11.72C19.04 11.46 18.53 11.175 18.015 10.865C17.415 11.33 16.735 11.605 16.005 11.605C15.275 11.605 14.595 11.33 13.99 10.865C13.59 11.11 13.07 11.415 12.48 11.72C12.205 11.865 11.94 11.995 11.69 12.115C10.985 12.45 10.35 12.705 9.78 12.88C7.71 13.525 7.185 16.295 7.06 17.465H24.945C24.815 16.3 24.3 13.53 22.225 12.88ZM25.455 10.11C25.835 10.11 26.205 9.935 26.545 9.635C26.56 9.625 26.57 9.61 26.585 9.6C27.44 8.815 28.095 7.245 28.095 5.65C28.095 3.34 26.655 2.855 25.45 2.855C24.24 2.855 22.8 3.34 22.8 5.65C22.8 7.25 23.465 8.83 24.325 9.61C24.685 9.92 25.07 10.11 25.455 10.11ZM30.08 12.09C29.5 11.915 28.835 11.63 28.03 11.215C27.62 11 27.255 10.785 26.97 10.615C26.515 10.945 26 11.145 25.46 11.145C24.91 11.145 24.4 10.95 23.945 10.615C23.59 10.83 23.235 11.035 22.885 11.215C22.545 11.395 22.22 11.55 21.92 11.68C22.135 11.765 22.34 11.83 22.535 11.89C24.215 12.415 25.085 13.895 25.535 15.265H32C31.885 14.35 31.475 12.53 30.08 12.09ZM5.455 9.63C5.795 9.93 6.17 10.105 6.545 10.105C6.93 10.105 7.31 9.925 7.66 9.615C7.67 9.605 7.675 9.6 7.68 9.595C8.54 8.81 9.195 7.24 9.195 5.645C9.195 3.335 7.755 2.85 6.545 2.85C5.34 2.85 3.9 3.335 3.9 5.645C3.9 7.235 4.55 8.805 5.405 9.59C5.425 9.605 5.44 9.615 5.455 9.63ZM9.475 11.895C9.67 11.84 9.88 11.765 10.09 11.685C9.79 11.55 9.47 11.395 9.12 11.22C8.71 11.01 8.35 10.795 8.06 10.62C7.605 10.95 7.095 11.15 6.55 11.15C6.005 11.15 5.495 10.955 5.04 10.62C4.77 10.785 4.405 11 3.975 11.22C3.185 11.635 2.51 11.92 1.935 12.095C0.53 12.53 0.12 14.35 0 15.27H6.47C6.92 13.895 7.79 12.415 9.475 11.895Z" fill="#1B264F"/>
</svg>
