<svg width="32" height="32" viewBox="0 0 32 32" fill="none" xmlns="http://www.w3.org/2000/svg">
<g clip-path="url(#clip0_3_261)">
<path d="M14.6667 12.6667H12C11.8232 12.6667 11.6536 12.7369 11.5286 12.8619C11.4036 12.9869 11.3333 13.1565 11.3333 13.3333C11.3333 13.5101 11.4036 13.6797 11.5286 13.8047C11.6536 13.9298 11.8232 14 12 14H14V15.3333H12C11.8232 15.3333 11.6536 15.4036 11.5286 15.5286C11.4036 15.6536 11.3333 15.8232 11.3333 16V18.6667C11.3333 18.8435 11.4036 19.013 11.5286 19.1381C11.6536 19.2631 11.8232 19.3333 12 19.3333H14.6667C14.8435 19.3333 15.013 19.2631 15.1381 19.1381C15.2631 19.013 15.3333 18.8435 15.3333 18.6667C15.3333 18.4898 15.2631 18.3203 15.1381 18.1953C15.013 18.0702 14.8435 18 14.6667 18H12.6667V16.6667H14.6667C14.8435 16.6667 15.013 16.5964 15.1381 16.4714C15.2631 16.3464 15.3333 16.1768 15.3333 16V13.3333C15.3333 13.1565 15.2631 12.9869 15.1381 12.8619C15.013 12.7369 14.8435 12.6667 14.6667 12.6667ZM19.3333 13.3333V15.3333H18V13.3333C18 13.1565 17.9298 12.9869 17.8047 12.8619C17.6797 12.7369 17.5101 12.6667 17.3333 12.6667C17.1565 12.6667 16.987 12.7369 16.8619 12.8619C16.7369 12.9869 16.6667 13.1565 16.6667 13.3333V16C16.6667 16.1768 16.7369 16.3464 16.8619 16.4714C16.987 16.5964 17.1565 16.6667 17.3333 16.6667H19.3333V18.6667C19.3333 18.8435 19.4036 19.013 19.5286 19.1381C19.6536 19.2631 19.8232 19.3333 20 19.3333C20.1768 19.3333 20.3464 19.2631 20.4714 19.1381C20.5964 19.013 20.6667 18.8435 20.6667 18.6667V13.3333C20.6667 13.1565 20.5964 12.9869 20.4714 12.8619C20.3464 12.7369 20.1768 12.6667 20 12.6667C19.8232 12.6667 19.6536 12.7369 19.5286 12.8619C19.4036 12.9869 19.3333 13.1565 19.3333 13.3333Z" fill="#F7B32B"/>
<path d="M16 6.66666C14.154 6.66666 12.3495 7.21405 10.8147 8.23961C9.27982 9.26517 8.08354 10.7228 7.37713 12.4283C6.67071 14.1337 6.48588 16.0103 6.84601 17.8208C7.20613 19.6313 8.09505 21.2944 9.40034 22.5997C10.7056 23.9049 12.3687 24.7939 14.1792 25.154C15.9896 25.5141 17.8663 25.3293 19.5717 24.6229C21.2772 23.9164 22.7348 22.7202 23.7604 21.1853C24.7859 19.6505 25.3333 17.8459 25.3333 16C25.3333 13.5246 24.35 11.1507 22.5997 9.40033C20.8493 7.64999 18.4754 6.66666 16 6.66666ZM16 24C14.4178 24 12.871 23.5308 11.5554 22.6517C10.2398 21.7727 9.21447 20.5233 8.60897 19.0615C8.00346 17.5996 7.84504 15.9911 8.15372 14.4393C8.4624 12.8874 9.22433 11.462 10.3431 10.3431C11.462 9.22432 12.8874 8.46239 14.4393 8.15371C15.9911 7.84503 17.5997 8.00345 19.0615 8.60895C20.5233 9.21445 21.7727 10.2398 22.6518 11.5554C23.5308 12.871 24 14.4177 24 16C24 18.1217 23.1571 20.1566 21.6569 21.6568C20.1566 23.1571 18.1217 24 16 24Z" fill="#F7B32B"/>
<path d="M30.5467 13.08C29.38 12.7467 28.28 12.5867 27.6867 11.14C27.0933 9.69333 27.84 8.7 28.3533 7.77333C28.5623 7.39129 28.6409 6.95148 28.5771 6.52072C28.5133 6.08996 28.3107 5.69178 28 5.38667L26.6133 4C26.3058 3.69254 25.9065 3.49367 25.4758 3.43352C25.0452 3.37337 24.6066 3.45522 24.2267 3.66667L23.2933 4.18667C22.9219 4.39269 22.5088 4.51216 22.0847 4.53616C21.6607 4.56015 21.2367 4.48805 20.8444 4.32525C20.4522 4.16244 20.1017 3.91312 19.8193 3.59592C19.5368 3.27871 19.3297 2.9018 19.2133 2.49334L18.92 1.47334C18.8046 1.0506 18.5536 0.677468 18.2055 0.411284C17.8574 0.145101 17.4315 0.000603133 16.9933 1.9998e-06H14.9933C14.5577 -0.000613793 14.1338 0.141 13.7861 0.403321C13.4383 0.665642 13.1857 1.03432 13.0667 1.45334C12.76 2.52667 12.5867 3.70667 11.14 4.30667C9.69334 4.90667 8.67334 4.15334 7.76 3.64C7.37873 3.43511 6.94127 3.35943 6.51332 3.42435C6.08537 3.48926 5.69003 3.69126 5.38667 4L4 5.38667C3.69146 5.69337 3.49135 6.09232 3.42999 6.52302C3.36863 6.95371 3.44939 7.39267 3.66 7.77333L4.18 8.70667C4.38611 9.07764 4.50583 9.49034 4.53024 9.91401C4.55465 10.3377 4.48313 10.7614 4.321 11.1536C4.15887 11.5458 3.91032 11.8963 3.59386 12.1791C3.27741 12.4618 2.90122 12.6695 2.49334 12.7867L1.46667 13.08C1.04518 13.1966 0.673527 13.4482 0.408633 13.7962C0.143738 14.1441 0.000201209 14.5693 1.9998e-06 15.0067V17.0067C-0.000613793 17.4423 0.141 17.8662 0.403321 18.2139C0.665642 18.5617 1.03432 18.8143 1.45334 18.9333C2.61334 19.26 3.72 19.4267 4.31334 20.8733C4.90667 22.32 4.16667 23.3133 3.64667 24.24C3.44095 24.6206 3.36418 25.0576 3.42788 25.4855C3.49159 25.9135 3.69234 26.3092 4 26.6133L5.38667 28C5.69338 28.3085 6.09232 28.5087 6.52302 28.57C6.95371 28.6314 7.39267 28.5506 7.77334 28.34L8.72 27.8133C9.09003 27.6097 9.50107 27.4917 9.92278 27.4682C10.3445 27.4447 10.7661 27.5162 11.1565 27.6775C11.5468 27.8388 11.896 28.0857 12.1781 28.4C12.4603 28.7142 12.6683 29.0879 12.7867 29.4933L13.08 30.5333C13.1966 30.9548 13.4482 31.3265 13.7962 31.5914C14.1441 31.8563 14.5693 31.9998 15.0067 32H17.0067C17.4423 32.0006 17.8662 31.859 18.2139 31.5967C18.5617 31.3344 18.8143 30.9657 18.9333 30.5467C19.26 29.3867 19.4267 28.28 20.8733 27.6867C22.32 27.0933 23.3 27.8333 24.24 28.3533C24.6206 28.5591 25.0576 28.6358 25.4855 28.5721C25.9135 28.5084 26.3092 28.3077 26.6133 28L28 26.6133C28.3075 26.3058 28.5063 25.9065 28.5665 25.4758C28.6266 25.0452 28.5448 24.6066 28.3333 24.2267L27.8067 23.28C27.6042 22.9107 27.487 22.5007 27.4637 22.0801C27.4405 21.6596 27.5117 21.2392 27.6722 20.8497C27.8327 20.4603 28.0784 20.1118 28.3912 19.8298C28.7041 19.5478 29.0761 19.3394 29.48 19.22L30.5333 18.92C30.9548 18.8034 31.3265 18.5518 31.5914 18.2038C31.8563 17.8559 31.9998 17.4307 32 16.9933V14.9933C31.9977 14.56 31.8548 14.1392 31.5927 13.7941C31.3306 13.449 30.9635 13.1984 30.5467 13.08ZM30.6667 16.9933C30.6667 17.5733 30.24 17.62 29.1333 17.9333C28.5348 18.1074 27.9832 18.414 27.5193 18.8304C27.0554 19.2468 26.6912 19.7622 26.4536 20.3385C26.216 20.9148 26.1112 21.5371 26.147 22.1594C26.1827 22.7817 26.358 23.388 26.66 23.9333C27.1867 24.88 27.5 25.2667 27.0733 25.6733C25.6467 27.1 25.4333 27.5067 24.8733 27.1933C23.7333 26.5267 22.3667 25.6267 20.32 26.4733C17.2333 27.7467 18.32 30.6733 16.9867 30.6733C14.22 30.6733 14.58 30.9733 14.06 29.1467C13.8076 28.2812 13.2812 27.5209 12.56 26.98C11.8388 26.4391 10.9615 26.1467 10.06 26.1467C8.83334 26.1467 8.14667 26.62 7.11334 27.1933C6.55334 27.5 6.34 27.1 4.91334 25.6733C4.47334 25.2333 4.83334 24.8267 5.32667 23.9333C5.62854 23.3876 5.80364 22.7809 5.83895 22.1582C5.87426 21.5355 5.76889 20.9129 5.53065 20.3365C5.29241 19.7601 4.92743 19.2448 4.46278 18.8288C3.99814 18.4127 3.44577 18.1067 2.84667 17.9333C1.84 17.64 1.33334 17.6067 1.33334 16.9933C1.33334 14.9267 1.20667 14.54 1.82 14.3667C3.15334 13.98 4.71334 13.6667 5.54 11.6667C6.36667 9.66667 5.49334 8.33333 4.81334 7.12667C4.50667 6.56667 4.90667 6.34667 6.33334 4.92667C6.76 4.5 7.13334 4.82 8.05334 5.33333C8.60002 5.63255 9.20686 5.80532 9.82916 5.83892C10.4515 5.87253 11.0734 5.76611 11.6491 5.5275C12.2248 5.2889 12.7397 4.92418 13.1558 4.46022C13.5719 3.99626 13.8786 3.44488 14.0533 2.84667C14.38 1.76 14.4 1.33334 15.0067 1.33334C17.0467 1.33334 17.46 1.20667 17.6333 1.82C17.9933 3.06667 18.3 4.7 20.3333 5.54C23.44 6.82667 24.74 4 25.6667 4.92667C27.6067 6.86 27.5867 6.40667 26.66 8.07333C26.358 8.61865 26.1827 9.22493 26.147 9.84724C26.1112 10.4695 26.216 11.0919 26.4536 11.6682C26.6912 12.2445 27.0554 12.7599 27.5193 13.1763C27.9832 13.5926 28.5348 13.8992 29.1333 14.0733C30.9733 14.5867 30.6667 14.2533 30.6667 16.9933Z" fill="#F7B32B"/>
</g>
<defs>
<clipPath id="clip0_3_261">
<rect width="32" height="32" fill="white"/>
</clipPath>
</defs>
</svg>
