<svg width="32" height="32" viewBox="0 0 32 32" fill="none" xmlns="http://www.w3.org/2000/svg">
<path d="M31.25 23.35C31.15 22.775 30.775 22.25 30.25 22C28.5 21.125 24.675 19.85 24.675 19.85V18.575L24.775 18.5C25.5 17.95 26.025 17.1 26.175 16.175L26.2 16.05H26.3C26.9 16.05 27.4 15.675 27.6 15.175C27.725 14.95 27.8 14.7 27.8 14.425C27.8 14.25 27.775 14.075 27.7 13.9C27.675 13.725 27.55 13.55 27.425 13.45L27.075 13.225L27.15 12.85C27.8 10.075 25.625 7.55 22.725 7.5C22.65 7.5 22.575 7.5 22.525 7.5C22.45 7.5 22.375 7.5 22.325 7.5C19.4 7.525 17.25 10.05 17.875 12.825L17.975 13.2L17.625 13.425C17.475 13.525 17.375 13.7 17.35 13.875C17.275 14.05 17.25 14.225 17.25 14.4C17.25 14.675 17.325 14.925 17.45 15.15C17.65 15.675 18.175 16.025 18.75 16.025H18.85L18.875 16.15C19.025 17.075 19.525 17.925 20.275 18.475L20.375 18.55V19.825C20.375 19.825 16.55 21.1 14.8 21.975C14.275 22.25 13.9 22.75 13.8 23.325C13.5 25.075 13.45 28.025 13.45 28.025H31.625C31.6 28.05 31.55 25.1 31.25 23.35Z" fill="#34252F"/>
<path d="M14.225 20.875C15.225 20.375 16.8 19.775 18.05 19.325C17.875 18.975 17.575 18.675 17.225 18.5C15.475 17.625 11.65 16.35 11.65 16.35V15.075L11.75 15C12.475 14.45 13 13.6 13.15 12.675L13.175 12.55H13.275C13.875 12.55 14.375 12.175 14.575 11.675C14.7 11.45 14.775 11.2 14.775 10.925C14.775 10.75 14.75 10.575 14.675 10.4C14.65 10.225 14.525 10.05 14.4 9.95L14.05 9.725L14.125 9.35C14.775 6.575 12.6 4.05 9.69999 4C9.62499 4 9.54999 4 9.49999 4C9.42499 4 9.34999 4 9.29999 4C6.39999 4.075 4.24999 6.575 4.87499 9.35L4.97499 9.725L4.62499 9.95C4.47499 10.05 4.37499 10.225 4.34999 10.4C4.27499 10.575 4.24999 10.75 4.24999 10.925C4.24999 11.2 4.32499 11.45 4.44999 11.675C4.64999 12.2 5.17499 12.55 5.74999 12.55H5.84999L5.87499 12.675C5.99999 13.6 6.49999 14.425 7.24999 15L7.34999 15.075V16.35C7.34999 16.35 3.52499 17.625 1.77499 18.5C1.24999 18.775 0.874988 19.275 0.774988 19.85C0.474988 21.6 0.424988 24.55 0.424988 24.55H12.375C12.425 24.05 12.475 23.575 12.55 23.15C12.725 22.15 13.35 21.325 14.225 20.875Z" fill="#34252F"/>
</svg>
